<svg width="258" height="258" viewBox="0 0 258 258" fill="none" xmlns="http://www.w3.org/2000/svg">
<g opacity="0.4" clip-path="url(#clip0_2234_9739)">
<path d="M129.089 32C57.7268 32 0 89.7268 0 161.089C0 232.273 57.7268 290.177 129.089 290.177C200.273 290.177 258.177 232.45 258.177 161.089C258 89.7268 200.273 32 129.089 32ZM129.089 281.855C62.3308 281.855 8.32258 227.846 8.32258 161.089C8.32258 94.3308 62.3308 40.3226 129.089 40.3226C195.846 40.3226 249.855 94.3308 249.855 161.089C249.855 227.669 195.669 281.855 129.089 281.855Z" fill="white"/>
<path d="M129.089 59.8008C73.3095 59.8008 27.978 105.132 27.978 160.911C27.978 216.69 73.3095 262.022 129.089 262.022C184.868 262.022 230.199 216.867 230.199 161.088C230.199 105.132 184.868 59.8008 129.089 59.8008ZM129.089 246.616C81.8092 246.616 43.3837 208.191 43.3837 160.911C43.3837 113.632 81.8092 75.2064 129.089 75.2064C176.368 75.2064 214.793 113.632 214.793 160.911C214.793 208.191 176.368 246.616 129.089 246.616Z" fill="white"/>
</g>
<defs>
<clipPath id="clip0_2234_9739">
<rect width="258" height="258" fill="white"/>
</clipPath>
</defs>
</svg>
