<svg width="134" height="182" viewBox="0 0 134 182" fill="none" xmlns="http://www.w3.org/2000/svg">
<path d="M39.6304 176.745C41.1026 176.743 42.2088 177.848 42.2116 179.325C42.2144 180.802 41.1124 181.912 39.6402 181.915C38.1681 181.918 37.0619 180.812 37.0591 179.335C37.0563 177.858 38.281 176.748 39.6304 176.745Z" fill="#FFCF2D"/>
<path d="M39.5889 154.713C41.0611 154.71 42.1673 155.816 42.1701 157.293C42.1729 158.77 41.0709 159.88 39.5987 159.883C38.1266 159.886 37.0204 158.78 37.0176 157.303C37.015 155.949 38.2394 154.716 39.5889 154.713Z" fill="#FFCF2D"/>
<path d="M39.5474 132.804C41.0196 132.801 42.1258 133.907 42.1286 135.384C42.1314 136.861 41.0294 137.971 39.5572 137.974C38.0851 137.976 36.9789 136.871 36.9761 135.394C36.9733 133.917 38.1979 132.807 39.5474 132.804Z" fill="#FFCF2D"/>
<path d="M39.5054 110.772C40.9776 110.769 42.0838 111.875 42.0866 113.352C42.0894 114.829 40.9874 115.939 39.5152 115.941C38.0431 115.944 36.9369 114.839 36.9341 113.361C36.9313 111.884 38.156 110.774 39.5054 110.772Z" fill="#FFCF2D"/>
<path d="M39.4639 88.7386C40.9361 88.7358 42.0423 89.8415 42.0451 91.3185C42.0479 92.7955 40.9459 93.9054 39.4737 93.9082C38.0016 93.911 36.8954 92.8053 36.8926 91.3283C36.89 89.9743 38.1144 88.7411 39.4639 88.7386Z" fill="#FFCF2D"/>
<path d="M39.4219 66.7063C40.8941 66.7036 42.0003 67.8092 42.0031 69.2863C42.0059 70.7633 40.9039 71.8732 39.4317 71.876C37.9596 71.8788 36.8534 70.7731 36.8506 69.296C36.8478 67.819 38.0725 66.7089 39.4219 66.7063Z" fill="#FFCF2D"/>
<path d="M39.3804 44.7972C40.8526 44.7944 41.9588 45.9001 41.9616 47.3771C41.9644 48.8541 40.8624 49.964 39.3902 49.9668C37.9181 49.9696 36.8119 48.8639 36.8091 47.3869C36.8063 45.9098 38.031 44.7997 39.3804 44.7972Z" fill="#FFCF2D"/>
<path d="M39.3389 22.7649C40.8111 22.7622 41.9173 23.8678 41.9201 25.3449C41.9229 26.8219 40.8209 27.9318 39.3487 27.9346C37.8766 27.9374 36.7704 26.8317 36.7676 25.3546C36.7648 23.8776 37.9894 22.7675 39.3389 22.7649Z" fill="#FFCF2D"/>
<path d="M39.2969 0.73176C40.7691 0.72897 41.8753 1.83464 41.8781 3.31167C41.8809 4.7887 40.7789 5.89858 39.3067 5.90137C37.8346 5.90416 36.7284 4.79847 36.7256 3.32144C36.723 1.96749 37.9475 0.734317 39.2969 0.73176Z" fill="#FFCF2D"/>
<path d="M57.9097 176.711C59.3819 176.708 60.4881 177.814 60.4909 179.291C60.4937 180.768 59.3917 181.878 57.9195 181.881C56.4474 181.884 55.3412 180.778 55.3384 179.301C55.3356 177.824 56.4376 176.714 57.9097 176.711Z" fill="#FFCF2D"/>
<path d="M57.8677 154.678C59.3399 154.675 60.4461 155.781 60.4489 157.258C60.4517 158.735 59.3497 159.845 57.8775 159.848C56.4054 159.85 55.2992 158.745 55.2964 157.268C55.2938 155.914 56.3956 154.681 57.8677 154.678Z" fill="#FFCF2D"/>
<path d="M57.8262 132.77C59.2984 132.767 60.4046 133.873 60.4074 135.35C60.4102 136.827 59.3082 137.937 57.836 137.939C56.3639 137.942 55.2577 136.837 55.2549 135.36C55.2521 133.882 56.3541 132.773 57.8262 132.77Z" fill="#FFCF2D"/>
<path d="M57.7847 110.737C59.2569 110.734 60.3631 111.84 60.3659 113.317C60.3687 114.794 59.2667 115.903 57.7945 115.906C56.3224 115.909 55.2162 114.803 55.2134 113.326C55.2106 111.849 56.3126 110.739 57.7847 110.737Z" fill="#FFCF2D"/>
<path d="M57.7427 88.7044C59.2149 88.7016 60.3211 89.8073 60.3239 91.2843C60.3267 92.7614 59.2247 93.8712 57.7525 93.874C56.2804 93.8768 55.1742 92.7711 55.1714 91.2941C55.1688 89.9401 56.2706 88.7072 57.7427 88.7044Z" fill="#FFCF2D"/>
<path d="M57.7012 66.6712C59.1734 66.6684 60.2796 67.7741 60.2824 69.2511C60.2852 70.7282 59.1832 71.838 57.711 71.8408C56.2389 71.8436 55.1327 70.7379 55.1299 69.2609C55.1271 67.7838 56.2291 66.674 57.7012 66.6712Z" fill="#FFCF2D"/>
<path d="M57.6592 44.763C59.1314 44.7602 60.2376 45.8659 60.2404 47.3429C60.2432 48.82 59.1412 49.9298 57.669 49.9326C56.1969 49.9354 55.0907 48.8297 55.0879 47.3527C55.0851 45.8757 56.1871 44.7658 57.6592 44.763Z" fill="#FFCF2D"/>
<path d="M57.6177 22.7298C59.0899 22.727 60.1961 23.8327 60.1989 25.3097C60.2017 26.7868 59.0997 27.8966 57.6275 27.8994C56.1554 27.9022 55.0492 26.7965 55.0464 25.3195C55.0436 23.8424 56.1456 22.7326 57.6177 22.7298Z" fill="#FFCF2D"/>
<path d="M57.5757 0.697565C59.0479 0.694775 60.1541 1.80045 60.1569 3.27748C60.1597 4.75452 59.0577 5.8644 57.5855 5.86719C56.1134 5.86998 55.0072 4.76429 55.0044 3.28725C55.0018 1.9333 56.1036 0.700355 57.5757 0.697565Z" fill="#FFCF2D"/>
<path d="M3.19488 176.815C4.66702 176.812 5.77323 177.918 5.77603 179.395C5.77883 180.872 4.67682 181.982 3.20467 181.984C1.73253 181.987 0.626318 180.881 0.623519 179.404C0.62072 177.927 1.72273 176.818 3.19488 176.815Z" fill="#FFCF2D"/>
<path d="M3.15288 154.783C4.62503 154.78 5.73124 155.885 5.73404 157.362C5.73684 158.839 4.63483 159.949 3.16268 159.952C1.69054 159.955 0.584326 158.849 0.581527 157.372C0.578961 156.018 1.68074 154.785 3.15288 154.783Z" fill="#FFCF2D"/>
<path d="M3.11138 132.873C4.58353 132.871 5.68973 133.976 5.69253 135.453C5.69533 136.93 4.59332 138.04 3.12118 138.043C1.64903 138.046 0.542589 136.817 0.540023 135.463C0.537224 133.986 1.63923 132.876 3.11138 132.873Z" fill="#FFCF2D"/>
<path d="M3.06988 110.84C4.54202 110.837 5.64823 111.943 5.65103 113.42C5.65383 114.897 4.55182 116.007 3.07967 116.01C1.60753 116.013 0.501085 114.784 0.498519 113.43C0.495953 112.076 1.59773 110.843 3.06988 110.84Z" fill="#FFCF2D"/>
<path d="M3.02788 88.8079C4.50003 88.8051 5.60624 89.9108 5.60904 91.3878C5.61184 92.8649 4.50983 93.9747 3.03768 93.9775C1.56554 93.9803 0.459326 92.8746 0.456527 91.3976C0.453961 90.0437 1.55574 88.8107 3.02788 88.8079Z" fill="#FFCF2D"/>
<path d="M2.98638 66.7757C4.45853 66.7729 5.56474 67.8786 5.56753 69.3556C5.57033 70.8327 4.46832 71.9425 2.99618 71.9453C1.52403 71.9481 0.417822 70.8424 0.415023 69.3654C0.412224 67.8883 1.51423 66.7785 2.98638 66.7757Z" fill="#FFCF2D"/>
<path d="M2.94488 44.8665C4.41702 44.8637 5.52323 45.9694 5.52603 47.4464C5.52883 48.9235 4.42682 50.0333 2.95467 50.0361C1.48253 50.0389 0.376318 48.9332 0.373519 47.4562C0.37072 45.9792 1.47273 44.8693 2.94488 44.8665Z" fill="#FFCF2D"/>
<path d="M2.90288 22.8333C4.37503 22.8305 5.48124 23.9362 5.48404 25.4132C5.48684 26.8903 4.38483 28.0001 2.91268 28.0029C1.44054 28.0057 0.334326 26.9 0.331527 25.423C0.328727 23.946 1.43074 22.8361 2.90288 22.8333Z" fill="#FFCF2D"/>
<path d="M2.86138 0.801096C4.33353 0.798306 5.43974 1.90398 5.44253 3.38101C5.44533 4.85804 4.34332 5.96791 2.87118 5.9707C1.39903 5.97349 0.292822 4.8678 0.290023 3.39077C0.287457 2.03683 1.38923 0.803886 2.86138 0.801096Z" fill="#FFCF2D"/>
<path d="M21.4742 176.781C22.9463 176.778 24.0525 177.883 24.0553 179.36C24.0581 180.838 22.8334 181.948 21.484 181.95C20.0118 181.953 18.9056 180.847 18.9028 179.37C18.9 177.893 20.002 176.783 21.4742 176.781Z" fill="#FFCF2D"/>
<path d="M21.4322 154.747C22.9043 154.745 24.0105 155.85 24.0133 157.327C24.0161 158.804 22.9141 159.914 21.442 159.917C19.9698 159.92 18.8636 158.814 18.8608 157.337C18.8583 155.983 19.96 154.75 21.4322 154.747Z" fill="#FFCF2D"/>
<path d="M21.3907 132.838C22.8628 132.835 23.969 133.941 23.9718 135.418C23.9746 136.895 22.8726 138.005 21.4005 138.008C19.9283 138.011 18.8221 136.905 18.8193 135.428C18.8165 133.951 19.9185 132.841 21.3907 132.838Z" fill="#FFCF2D"/>
<path d="M21.3492 110.806C22.8213 110.803 23.9275 111.909 23.9303 113.386C23.9331 114.863 22.8311 115.973 21.359 115.976C19.8868 115.978 18.7806 114.873 18.7778 113.396C18.775 111.919 19.877 110.809 21.3492 110.806Z" fill="#FFCF2D"/>
<path d="M21.3072 88.7737C22.7793 88.7709 23.8855 89.8766 23.8883 91.3537C23.8911 92.8307 22.7891 93.9406 21.317 93.9434C19.8448 93.9461 18.7386 92.8405 18.7358 91.3634C18.7333 90.0095 19.835 88.7765 21.3072 88.7737Z" fill="#FFCF2D"/>
<path d="M21.2657 66.7405C22.7378 66.7377 23.844 67.8434 23.8468 69.3205C23.8496 70.7975 22.7476 71.9074 21.2755 71.9102C19.8033 71.9129 18.6971 70.8073 18.6943 69.3302C18.6915 67.8532 19.7935 66.7433 21.2657 66.7405Z" fill="#FFCF2D"/>
<path d="M21.2242 44.8314C22.6963 44.8286 23.8025 45.9342 23.8053 47.4113C23.8081 48.8883 22.7061 49.9982 21.234 50.001C19.7618 50.0038 18.6556 48.8981 18.6528 47.421C18.65 45.944 19.752 44.8341 21.2242 44.8314Z" fill="#FFCF2D"/>
<path d="M21.1822 22.7991C22.6543 22.7963 23.7605 23.902 23.7633 25.3791C23.7661 26.8561 22.6641 27.966 21.192 27.9688C19.7198 27.9715 18.6136 26.8659 18.6108 25.3888C18.608 23.9118 19.71 22.8019 21.1822 22.7991Z" fill="#FFCF2D"/>
<path d="M21.1407 0.766901C22.6128 0.764111 23.719 1.86978 23.7218 3.34682C23.7246 4.82386 22.6226 5.93373 21.1505 5.93652C19.6783 5.93931 18.5721 4.83362 18.5693 3.35659C18.5668 2.00264 19.6685 0.769691 21.1407 0.766901Z" fill="#FFCF2D"/>
<path d="M76.0665 176.677C77.5386 176.674 78.6448 177.78 78.6476 179.257C78.6504 180.734 77.5484 181.844 76.0763 181.847C74.6041 181.849 73.4979 180.744 73.4951 179.267C73.4923 177.79 74.717 176.68 76.0665 176.677Z" fill="#FFCF2D"/>
<path d="M76.0245 154.644C77.4966 154.641 78.6028 155.747 78.6056 157.224C78.6084 158.701 77.5064 159.811 76.0343 159.813C74.5621 159.816 73.4559 158.711 73.4531 157.234C73.4505 155.88 74.675 154.646 76.0245 154.644Z" fill="#FFCF2D"/>
<path d="M75.983 132.735C77.4551 132.732 78.5613 133.838 78.5641 135.315C78.5669 136.792 77.4649 137.902 75.9928 137.904C74.5206 137.907 73.4144 136.801 73.4116 135.324C73.4088 133.847 74.6335 132.737 75.983 132.735Z" fill="#FFCF2D"/>
<path d="M75.941 110.702C77.4131 110.7 78.5193 111.805 78.5221 113.282C78.5249 114.759 77.4229 115.869 75.9508 115.872C74.4786 115.875 73.3724 114.769 73.3696 113.292C73.3668 111.815 74.5915 110.705 75.941 110.702Z" fill="#FFCF2D"/>
<path d="M75.8995 88.6702C77.3716 88.6674 78.4778 89.7731 78.4806 91.2501C78.4834 92.7272 77.3814 93.8371 75.9093 93.8398C74.4371 93.8426 73.3309 92.7369 73.3281 91.2599C73.3255 89.906 74.55 88.6728 75.8995 88.6702Z" fill="#FFCF2D"/>
<path d="M75.8575 66.637C77.3296 66.6342 78.4358 67.7399 78.4386 69.2169C78.4414 70.694 77.3394 71.8039 75.8673 71.8066C74.3951 71.8094 73.2889 70.7037 73.2861 69.2267C73.2833 67.7497 74.508 66.6396 75.8575 66.637Z" fill="#FFCF2D"/>
<path d="M75.816 44.7278C77.2881 44.725 78.3943 45.8307 78.3971 47.3078C78.3999 48.7848 77.2979 49.8947 75.8258 49.8975C74.3536 49.9003 73.2474 48.7946 73.2446 47.3175C73.2418 45.8405 74.4665 44.7304 75.816 44.7278Z" fill="#FFCF2D"/>
<path d="M75.7745 22.6956C77.2466 22.6928 78.3528 23.7985 78.3556 25.2755C78.3584 26.7526 77.2564 27.8624 75.7843 27.8652C74.3121 27.868 73.2059 26.7623 73.2031 25.2853C73.2003 23.8083 74.425 22.6982 75.7745 22.6956Z" fill="#FFCF2D"/>
<path d="M75.7325 0.663385C77.2046 0.660595 78.3108 1.76627 78.3136 3.2433C78.3164 4.72034 77.2144 5.83022 75.7423 5.83301C74.2701 5.8358 73.1639 4.73011 73.1611 3.25307C73.1586 1.89912 74.383 0.665943 75.7325 0.663385Z" fill="#FFCF2D"/>
<path d="M94.3453 176.642C95.8174 176.639 96.9236 177.745 96.9264 179.222C96.9292 180.699 95.8272 181.809 94.3551 181.812C92.8829 181.814 91.7767 180.709 91.7739 179.232C91.7711 177.755 92.8731 176.645 94.3453 176.642Z" fill="#FFCF2D"/>
<path d="M94.3033 154.61C95.7754 154.607 96.8816 155.713 96.8844 157.19C96.8872 158.667 95.7852 159.777 94.3131 159.779C92.8409 159.782 91.7347 158.676 91.7319 157.199C91.7294 155.845 92.8311 154.612 94.3033 154.61Z" fill="#FFCF2D"/>
<path d="M94.2618 132.7C95.7339 132.698 96.8401 133.803 96.8429 135.28C96.8457 136.757 95.7437 137.867 94.2716 137.87C92.7994 137.873 91.6932 136.767 91.6904 135.29C91.6876 133.813 92.7896 132.703 94.2618 132.7Z" fill="#FFCF2D"/>
<path d="M96.8014 113.247C96.7987 111.82 95.6431 110.665 94.2203 110.667C92.7974 110.67 91.6462 111.829 91.6489 113.257C91.6516 114.685 92.8072 115.84 94.2301 115.837C95.6529 115.834 96.8041 114.675 96.8014 113.247Z" fill="#FFCF2D"/>
<path d="M94.1783 88.6351C95.6504 88.6323 96.7566 89.738 96.7594 91.215C96.7622 92.692 95.6602 93.8019 94.1881 93.8047C92.7159 93.8075 91.6097 92.7018 91.6069 91.2248C91.6044 89.8708 92.7061 88.6378 94.1783 88.6351Z" fill="#FFCF2D"/>
<path d="M94.1368 66.6028C95.6089 66.6 96.7151 67.7057 96.7179 69.1828C96.7207 70.6598 95.6187 71.7697 94.1466 71.7725C92.6744 71.7753 91.5682 70.6696 91.5654 69.1925C91.5626 67.7155 92.6646 66.6056 94.1368 66.6028Z" fill="#FFCF2D"/>
<path d="M94.0953 44.6936C95.5674 44.6909 96.6736 45.7965 96.6764 47.2736C96.6792 48.7506 95.5772 49.8605 94.1051 49.8633C92.6329 49.8661 91.5267 48.7604 91.5239 47.2833C91.5211 45.8063 92.6231 44.6964 94.0953 44.6936Z" fill="#FFCF2D"/>
<path d="M96.6344 25.2414C96.6317 23.8138 95.4761 22.6587 94.0533 22.6614C92.6304 22.6641 91.4792 23.8236 91.4819 25.2511C91.4846 26.6787 92.6402 27.8338 94.0631 27.8311C95.4859 27.8284 96.6371 26.6689 96.6344 25.2414Z" fill="#FFCF2D"/>
<path d="M94.0118 0.628229C95.4839 0.625439 96.5901 1.73111 96.5929 3.20815C96.5957 4.68518 95.4937 5.79506 94.0216 5.79785C92.5494 5.80064 91.4432 4.69495 91.4404 3.21791C91.4378 1.86396 92.5396 0.631019 94.0118 0.628229Z" fill="#FFCF2D"/>
<path d="M112.625 176.608C114.097 176.605 115.203 177.711 115.206 179.188C115.209 180.665 114.107 181.775 112.634 181.777C111.162 181.78 110.056 180.674 110.053 179.197C110.05 177.72 111.152 176.611 112.625 176.608Z" fill="#FFCF2D"/>
<path d="M112.583 154.575C114.055 154.572 115.161 155.677 115.164 157.154C115.167 158.631 114.065 159.741 112.592 159.744C111.12 159.747 110.014 158.641 110.011 157.164C110.009 155.81 111.11 154.577 112.583 154.575Z" fill="#FFCF2D"/>
<path d="M112.541 132.665C114.013 132.663 115.119 133.768 115.122 135.245C115.125 136.722 114.023 137.832 112.551 137.835C111.079 137.838 109.973 136.732 109.97 135.255C109.967 133.778 111.069 132.668 112.541 132.665Z" fill="#FFCF2D"/>
<path d="M112.5 110.633C113.972 110.63 115.078 111.736 115.081 113.213C115.084 114.69 113.982 115.8 112.509 115.803C111.037 115.806 109.931 114.7 109.928 113.223C109.925 111.746 111.027 110.636 112.5 110.633Z" fill="#FFCF2D"/>
<path d="M112.458 88.6009C113.93 88.5981 115.036 89.7038 115.039 91.1808C115.042 92.6578 113.94 93.7677 112.467 93.7705C110.995 93.7733 109.889 92.6676 109.886 91.1906C109.884 89.8366 110.985 88.6037 112.458 88.6009Z" fill="#FFCF2D"/>
<path d="M112.416 66.5677C113.888 66.5649 114.994 67.6706 114.997 69.1476C115 70.6246 113.898 71.7345 112.426 71.7373C110.954 71.7401 109.848 70.6344 109.845 69.1574C109.842 67.6803 110.944 66.5705 112.416 66.5677Z" fill="#FFCF2D"/>
<path d="M112.375 44.6585C113.847 44.6557 114.953 45.7614 114.956 47.2384C114.959 48.7155 113.857 49.8253 112.384 49.8281C110.912 49.8309 109.806 48.7252 109.803 47.2482C109.8 45.7712 110.902 44.6613 112.375 44.6585Z" fill="#FFCF2D"/>
<path d="M112.333 22.6263C113.805 22.6235 114.911 23.7292 114.914 25.2062C114.917 26.6832 113.815 27.7931 112.342 27.7959C110.87 27.7987 109.764 26.693 109.761 25.216C109.758 23.7389 110.86 22.6291 112.333 22.6263Z" fill="#FFCF2D"/>
<path d="M112.291 0.594049C113.763 0.591259 114.869 1.69693 114.872 3.17397C114.875 4.651 113.773 5.76088 112.301 5.76367C110.829 5.76646 109.723 4.66077 109.72 3.18373C109.717 1.82978 110.819 0.59684 112.291 0.594049Z" fill="#FFCF2D"/>
<path d="M130.781 176.573C132.253 176.57 133.359 177.675 133.362 179.152C133.365 180.63 132.263 181.739 130.791 181.742C129.318 181.745 128.212 180.639 128.209 179.162C128.207 177.685 129.431 176.575 130.781 176.573Z" fill="#FFCF2D"/>
<path d="M130.739 154.54C132.211 154.538 133.318 155.643 133.32 157.12C133.323 158.597 132.221 159.707 130.749 159.71C129.277 159.713 128.171 158.607 128.168 157.13C128.165 155.776 129.39 154.543 130.739 154.54Z" fill="#FFCF2D"/>
<path d="M130.698 132.631C132.17 132.628 133.276 133.734 133.279 135.211C133.282 136.688 132.18 137.798 130.708 137.801C129.235 137.804 128.129 136.698 128.126 135.221C128.124 133.744 129.348 132.634 130.698 132.631Z" fill="#FFCF2D"/>
<path d="M130.656 110.599C132.128 110.596 133.234 111.702 133.237 113.179C133.24 114.656 132.138 115.766 130.666 115.769C129.193 115.771 128.087 114.666 128.084 113.189C128.082 111.712 129.306 110.601 130.656 110.599Z" fill="#FFCF2D"/>
<path d="M130.614 88.5657C132.086 88.5629 133.193 89.6686 133.195 91.1457C133.198 92.6227 132.096 93.7326 130.624 93.7354C129.152 93.7381 128.046 92.6325 128.043 91.1554C128.04 89.8015 129.265 88.5683 130.614 88.5657Z" fill="#FFCF2D"/>
<path d="M130.572 66.5335C132.044 66.5307 133.151 67.6364 133.153 69.1134C133.156 70.5905 132.054 71.7003 130.582 71.7031C129.11 71.7059 128.004 70.6002 128.001 69.1232C127.998 67.6462 129.223 66.5361 130.572 66.5335Z" fill="#FFCF2D"/>
<path d="M130.531 44.6243C132.003 44.6215 133.109 45.7272 133.112 47.2042C133.115 48.6813 132.013 49.7912 130.541 49.7939C129.068 49.7967 127.962 48.691 127.959 47.214C127.957 45.737 129.181 44.6269 130.531 44.6243Z" fill="#FFCF2D"/>
<path d="M130.489 22.5921C131.961 22.5893 133.067 23.695 133.07 25.172C133.073 26.6491 131.971 27.7589 130.499 27.7617C129.026 27.7645 127.92 26.6588 127.917 25.1818C127.915 23.7047 129.139 22.5946 130.489 22.5921Z" fill="#FFCF2D"/>
<path d="M130.447 0.558893C131.919 0.556103 133.026 1.66178 133.028 3.13881C133.031 4.61585 131.929 5.72573 130.457 5.72852C128.985 5.73131 127.879 4.62561 127.876 3.14858C127.873 1.79463 129.098 0.561451 130.447 0.558893Z" fill="#FFCF2D"/>
</svg>
