<svg width="12" height="17" viewBox="0 0 12 17" fill="none" xmlns="http://www.w3.org/2000/svg">
<path fill-rule="evenodd" clip-rule="evenodd" d="M0.00759296 17C0.00253099 15.735 0 15.0683 0 15C0 11.6863 2.68629 9 6 9C9.31371 9 12 11.6863 12 15V17H10V16C10 13.2386 9.04608 11 6 11C2.95392 11 2 13.2386 2 16C2 16.0434 2.00098 16.3767 2.00294 17H0.00759296Z" fill="black"/>
<path fill-rule="evenodd" clip-rule="evenodd" d="M6 8C3.79086 8 2 6.20914 2 4C2 1.79086 3.79086 0 6 0C8.20914 0 10 1.79086 10 4C10 6.20914 8.20914 8 6 8ZM6 6C7.10457 6 8 5.10457 8 4C8 2.89543 7.10457 2 6 2C4.89543 2 4 2.89543 4 4C4 5.10457 4.89543 6 6 6Z" fill="black"/>
</svg>
