<svg width="16" height="17" viewBox="0 0 16 17" fill="none" xmlns="http://www.w3.org/2000/svg">
<path fill-rule="evenodd" clip-rule="evenodd" d="M10.7279 12.5607L12.1421 11.1464L15.6777 14.682L14.2635 16.0962L10.7279 12.5607ZM10.7279 11.1464C8.38478 13.4896 4.58579 13.4896 2.24264 11.1464C-0.100505 8.8033 -0.100505 5.00431 2.24264 2.66117C4.58579 0.318022 8.38478 0.318022 10.7279 2.66117C13.0711 5.00431 13.0711 8.8033 10.7279 11.1464ZM9.31371 9.73224C10.8758 8.17014 10.8758 5.63748 9.31371 4.07538C7.75161 2.51328 5.21895 2.51328 3.65685 4.07538C2.09476 5.63748 2.09476 8.17014 3.65685 9.73224C5.21895 11.2943 7.75161 11.2943 9.31371 9.73224Z" fill="black"/>
</svg>
