<svg width="121" height="16" viewBox="0 0 121 16" fill="none" xmlns="http://www.w3.org/2000/svg">
<mask id="mask0_2_2121" style="mask-type:alpha" maskUnits="userSpaceOnUse" x="0" y="0" width="16" height="16">
<path fill-rule="evenodd" clip-rule="evenodd" d="M0 0.0543365H15.0647V15.3961H0V0.0543365Z" fill="white"/>
</mask>
<g mask="url(#mask0_2_2121)">
</g>
<mask id="mask1_2_2121" style="mask-type:alpha" maskUnits="userSpaceOnUse" x="0" y="0" width="10" height="16">
<path fill-rule="evenodd" clip-rule="evenodd" d="M0.177979 0.0272293H9.48264V15.0943H0.177979V0.0272293Z" fill="white"/>
</mask>
<g mask="url(#mask1_2_2121)">
</g>
<mask id="mask2_2_2121" style="mask-type:alpha" maskUnits="userSpaceOnUse" x="0" y="0" width="121" height="16">
<path fill-rule="evenodd" clip-rule="evenodd" d="M0 15.6438H120.768V0.301888H0V15.6438Z" fill="white"/>
</mask>
<g mask="url(#mask2_2_2121)">
<path fill-rule="evenodd" clip-rule="evenodd" d="M7.53234 13.5443C10.5567 13.5443 13.0035 11.0529 13.0035 7.97271C13.0035 4.89286 10.5567 2.40109 7.53234 2.40109C4.50794 2.40109 2.06145 4.89286 2.06145 7.97271C2.06145 11.0529 4.50794 13.5443 7.53234 13.5443ZM7.53234 0.301765C11.6936 0.301765 15.0647 3.73512 15.0647 7.97271C15.0647 12.2103 11.6936 15.6437 7.53234 15.6437C3.37169 15.6437 -6.10352e-05 12.2103 -6.10352e-05 7.97271C-6.10352e-05 3.73512 3.37169 0.301765 7.53234 0.301765Z" fill="#202020"/>
<path fill-rule="evenodd" clip-rule="evenodd" d="M18.2944 6.03046V11.3862C18.2944 12.9361 18.8912 13.721 20.0859 13.721C21.2995 13.721 21.897 12.9361 21.897 11.3862V6.03046H24.016V15.369H21.897V14.3094C21.5695 15.0744 20.8567 15.6437 19.6043 15.6437C18.2176 15.6437 16.9459 14.8785 16.445 13.3681C16.2717 12.8776 16.1754 12.2499 16.1754 11.4454V6.03046H18.2944Z" fill="#202020"/>
<path fill-rule="evenodd" clip-rule="evenodd" d="M30.5083 6.03046V8.05099H28.1967V11.6021C28.1967 12.3867 28.2542 12.8969 28.389 13.1523C28.5242 13.4267 28.7743 13.564 29.1596 13.564C29.4488 13.564 29.8341 13.446 30.2964 13.2108L30.5083 13.0931V15.3102C29.9497 15.526 29.4871 15.6437 29.0828 15.6437C28.0233 15.6437 27.2332 15.3102 26.6746 14.6234C26.27 14.1328 26.0777 13.309 26.0777 12.1319V8.05099H25.3261V6.03046H26.0777V3.00918H28.1967V6.03046H30.5083Z" fill="#202020"/>
<path fill-rule="evenodd" clip-rule="evenodd" d="M34.0511 12.8577C34.5324 13.4268 35.1491 13.7208 35.8811 13.7208C36.6514 13.7208 37.2874 13.4461 37.769 12.897C38.2509 12.3279 38.501 11.6022 38.501 10.7191C38.501 9.85606 38.2509 9.13002 37.769 8.56126C37.2874 7.99251 36.6712 7.71749 35.9004 7.71749C35.1491 7.71749 34.5522 7.99251 34.0703 8.56126C33.5884 9.13002 33.3383 9.83643 33.3383 10.6802C33.3383 11.5629 33.5695 12.289 34.0511 12.8577ZM38.3661 0.57666H40.4851V15.3688H38.3661V14.2899C37.6341 15.2707 36.5939 15.6438 35.5344 15.6438C34.2822 15.6438 33.242 15.1729 32.4134 14.2313C31.5853 13.309 31.1805 12.1124 31.1805 10.6802C31.1805 9.26738 31.5853 8.11024 32.3941 7.18798C33.2227 6.2464 34.2437 5.77575 35.4958 5.77575C36.5553 5.77575 37.6341 6.12836 38.3661 7.22753V0.57666Z" fill="#202020"/>
<path fill-rule="evenodd" clip-rule="evenodd" d="M46.2773 13.7209C48.0114 13.7209 49.0709 12.3866 49.0709 10.7193C49.0709 9.05165 48.0114 7.71761 46.2773 7.71761C44.5436 7.71761 43.5034 9.05165 43.5034 10.7193C43.5034 12.3866 44.5436 13.7209 46.2773 13.7209ZM46.2773 5.77557C49.0131 5.77557 51.1706 7.97271 51.1706 10.7193C51.1706 13.4655 49.0131 15.6437 46.2773 15.6437C43.5422 15.6437 41.4033 13.4655 41.4033 10.7193C41.4033 7.97271 43.5422 5.77557 46.2773 5.77557Z" fill="#202020"/>
<path fill-rule="evenodd" clip-rule="evenodd" d="M56.7013 13.7209C58.4351 13.7209 59.4946 12.3866 59.4946 10.7193C59.4946 9.05165 58.4351 7.71761 56.7013 7.71761C54.9673 7.71761 53.9271 9.05165 53.9271 10.7193C53.9271 12.3866 54.9673 13.7209 56.7013 13.7209ZM56.7013 5.77557C59.4371 5.77557 61.5946 7.97271 61.5946 10.7193C61.5946 13.4655 59.4371 15.6437 56.7013 15.6437C53.9659 15.6437 51.8273 13.4655 51.8273 10.7193C51.8273 7.97271 53.9659 5.77557 56.7013 5.77557Z" fill="#202020"/>
<path fill-rule="evenodd" clip-rule="evenodd" d="M62.5138 6.03046H64.6328V6.97204C65.0373 6.26593 65.6923 5.77567 66.6555 5.77567C67.1753 5.77567 67.5798 5.93234 67.8306 6.16812V8.40419C67.4838 8.12978 67.0405 7.9728 66.5592 7.9728C65.2682 7.9728 64.6328 8.83619 64.6328 10.4839V15.369H62.5138V6.03046Z" fill="#202020"/>
<path fill-rule="evenodd" clip-rule="evenodd" d="M85.0246 0.576752L79.2647 15.3689H76.4905L70.7114 0.576752H73.1389L77.8004 13.0148H77.9163L82.5973 0.576752H85.0246Z" fill="#202020"/>
<path fill-rule="evenodd" clip-rule="evenodd" d="M87.6213 13.7209C89.3553 13.7209 90.4148 12.3866 90.4148 10.7193C90.4148 9.05165 89.3553 7.71761 87.6213 7.71761C85.8875 7.71761 84.8473 9.05165 84.8473 10.7193C84.8473 12.3866 85.8875 13.7209 87.6213 13.7209ZM87.6213 5.77557C90.357 5.77557 92.5145 7.97271 92.5145 10.7193C92.5145 13.4655 90.357 15.6437 87.6213 15.6437C84.8861 15.6437 82.7476 13.4655 82.7476 10.7193C82.7476 7.97271 84.8861 5.77557 87.6213 5.77557Z" fill="#202020"/>
<path fill-rule="evenodd" clip-rule="evenodd" d="M93.5053 15.3691H95.6246V6.03049H93.5053V15.3691ZM94.5651 0.772827C95.3742 0.772827 96.0096 1.42007 96.0096 2.24422C96.0096 3.06777 95.3742 3.71532 94.5651 3.71532C93.7558 3.71532 93.1204 3.06777 93.1204 2.24422C93.1204 1.42007 93.7558 0.772827 94.5651 0.772827Z" fill="#231F20"/>
<path fill-rule="evenodd" clip-rule="evenodd" d="M104.167 8.89486C103.551 8.11025 102.838 7.75704 101.625 7.75704C99.8906 7.75704 98.7736 9.05184 98.7736 10.7192C98.7736 12.4263 99.8906 13.6619 101.547 13.6619C102.761 13.6619 103.416 13.2894 104.167 12.5045V14.9377C103.358 15.5062 102.453 15.6435 101.605 15.6435C98.8311 15.6435 96.6155 13.5835 96.6155 10.7388C96.6155 7.79629 98.8118 5.75584 101.605 5.75584C102.549 5.75584 103.454 5.93244 104.167 6.44233V8.89486Z" fill="#202020"/>
<path fill-rule="evenodd" clip-rule="evenodd" d="M111.579 9.4441C111.29 8.28697 110.577 7.71761 109.441 7.71761C108.439 7.71761 107.572 8.42373 107.321 9.4441H111.579ZM113.736 11.2101H107.186C107.244 11.9944 107.495 12.603 107.918 13.0344C108.362 13.4858 109.113 13.7209 109.787 13.7209C110.307 13.7209 110.75 13.6228 111.155 13.4462C111.695 13.211 112.349 12.7594 112.869 12.1318V14.5448C112.176 15.1141 111.405 15.6437 109.498 15.6437C108.13 15.6437 107.033 15.1923 106.204 14.29C105.376 13.407 104.971 12.2103 104.971 10.7193C104.971 9.24818 105.376 8.0512 106.165 7.12923C106.975 6.22659 108.054 5.77557 109.382 5.77557C110.731 5.77557 111.791 6.20697 112.581 7.08999C113.37 7.97271 113.755 9.16939 113.755 10.6996L113.736 11.2101Z" fill="#202020"/>
<path fill-rule="evenodd" clip-rule="evenodd" d="M120.19 8.73773C119.419 7.9335 118.61 7.6784 117.898 7.6784C117.242 7.6784 116.703 7.89425 116.703 8.42376C116.703 8.95357 117.107 9.16942 117.936 9.54255C119.67 10.3072 120.768 10.837 120.768 12.5047C120.768 14.3486 119.515 15.6437 117.551 15.6437C116.067 15.6437 115.219 15.2316 114.526 14.6626V12.0733C115.277 13.0734 116.318 13.6621 117.165 13.6621C118.148 13.6621 118.61 13.3874 118.61 12.7202C118.61 12.3281 118.417 11.9552 117.782 11.6413L116.491 11.0136C115.354 10.4645 114.699 9.83659 114.699 8.58074C114.699 6.75644 116.029 5.77561 117.685 5.77561C118.995 5.77561 119.67 6.10889 120.19 6.50165V8.73773Z" fill="#202020"/>
</g>
</svg>
